# xmcd
#
# Track frame offsets: 
#        150
#        21129
#        32837
#        42787
#        55733
#        69595
#        84665
#        97329
#        108657
#        119437
#        133937
#        147914
#        160597
#        173882
#
# Disc length: 2518 seconds
#
# Revision: 0
# Processed by: cddbd v1.5.2PL0 Copyright (c) Steve Scherf et al.
# Submitted via: ExactAudioCopy v0.95b4
#
DISCID=c609d40e
DTITLE=Various Artist - Guide to Cajun Music [CD 2:Pioneers)
DYEAR=2007
DGENRE=Cajun
TTITLE0=Joe Falcon - Allons A Lafayette
TTITLE1=Hackberry Ramblers - Jolie Blonde
TTITLE2=Harry Choates - Devil In The Bayou
TTITLE3=Hackberry Ramblers - Grand Texas
TTITLE4=Dennis McGee - Madame Young
TTITLE5=Blind Uncle Gaspard - Sur Le Borde L'eau (On Water's Edge)
TTITLE6=Amédé Ardoin - La Valse De Amities
TTITLE7=Lawrence Walker - Wandering Aces Special
TTITLE8=Austin Pitre and The Evangeline Playboys - Flumes D'Enfer (Les F
TTITLE8=lammes D'Enfer)
TTITLE9=Octa Clark and Hector Duhon - Bosco Stomp
TTITLE10=Wade Frugé - La Vielle Chanson De Mardi Gras
TTITLE11=Leo Soileu feat. Mayeurs LaFleur - The Criminal Waltz
TTITLE12=Chuck Guillory and Papa Cairo - Grand Texas
TTITLE13=Lost Bayou Ramblers - Pilette Breakdown
EXTD=
EXTT0=
EXTT1=
EXTT2=
EXTT3=
EXTT4=
EXTT5=
EXTT6=
EXTT7=
EXTT8=
EXTT9=
EXTT10=
EXTT11=
EXTT12=
EXTT13=
PLAYORDER=
